<svg version="1.1" id="prefix___x32_" xmlns="http://www.w3.org/2000/svg" x="0" y="0" viewBox="0 0 512 512" style="width:256px;height:256px" xml:space="preserve" opacity="1"><style>.prefix__st0{fill:#4b4b4b}</style><path class="prefix__st0" d="M256.007 357.113c-16.784 0-30.411 13.613-30.411 30.397 0 16.791 13.627 30.405 30.411 30.405s30.397-13.614 30.397-30.405c.001-16.784-13.612-30.397-30.397-30.397z" fill="#4b4b4b"/><path class="prefix__st0" d="M505.097 407.119L300.769 53.209c-9.203-15.944-26.356-25.847-44.777-25.847-18.407 0-35.544 9.904-44.747 25.847L6.902 407.104c-9.203 15.943-9.203 35.751 0 51.694 9.204 15.943 26.356 25.84 44.763 25.84h408.67c18.406 0 35.559-9.897 44.762-25.84 9.204-15.943 9.204-35.751 0-51.679zm-40.632 25.286c-2.95 5.103-8.444 8.266-14.35 8.266H61.878c-5.892 0-11.394-3.163-14.329-8.281-2.964-5.11-2.979-11.445-.014-16.548l194.122-336.24c2.943-5.103 8.436-8.274 14.35-8.274a16.59 16.59 0 0114.336 8.282l194.122 336.226a16.617 16.617 0 010 16.569z" fill="#4b4b4b"/><path class="prefix__st0" d="M256.007 152.719c-16.784 0-30.411 13.613-30.411 30.405l11.68 137.487c0 10.346 8.378 18.724 18.731 18.724 10.338 0 18.731-8.378 18.731-18.724l11.666-137.487c.001-16.793-13.612-30.405-30.397-30.405z" fill="#4b4b4b"/></svg>